<svg width="30" height="30" viewBox="0 0 30 30" fill="none" xmlns="http://www.w3.org/2000/svg">
<g opacity="0.7">
<path fill-rule="evenodd" clip-rule="evenodd" d="M20.4037 18.8606C20.1988 18.8606 20.0023 18.942 19.8574 19.0869C19.7126 19.2318 19.6312 19.4282 19.6312 19.6331V22.7213C19.6309 23.7451 19.2241 24.7269 18.5001 25.4508C17.7762 26.1748 16.7944 26.5816 15.7705 26.5819H8.05117C7.02718 26.5816 6.04522 26.1747 5.32124 25.4505C4.59726 24.7264 4.19055 23.7443 4.19055 22.7203V7.27969C4.1908 6.25586 4.59762 5.27404 5.32157 4.55009C6.04553 3.82613 7.02735 3.41931 8.05117 3.41906H15.7715C16.7953 3.41931 17.7771 3.82613 18.5011 4.55009C19.225 5.27404 19.6319 6.25586 19.6321 7.27969V10.3678C19.6391 10.5679 19.7235 10.7575 19.8675 10.8966C20.0115 11.0357 20.2039 11.1134 20.4041 11.1134C20.6044 11.1134 20.7968 11.0357 20.9408 10.8966C21.0848 10.7575 21.1692 10.5679 21.1762 10.3678V7.27969C21.1757 5.84643 20.6061 4.47201 19.5926 3.45855C18.5792 2.44508 17.2047 1.8755 15.7715 1.875H8.05117C6.61791 1.8755 5.2435 2.44508 4.23003 3.45855C3.21656 4.47201 2.64698 5.84643 2.64648 7.27969V22.7203C2.64698 24.1536 3.21656 25.528 4.23003 26.5415C5.2435 27.5549 6.61791 28.1245 8.05117 28.125H15.7715C17.2047 28.1245 18.5792 27.5549 19.5926 26.5415C20.6061 25.528 21.1757 24.1536 21.1762 22.7203V19.6322C21.1759 19.4275 21.0944 19.2312 20.9496 19.0866C20.8047 18.9419 20.6084 18.8606 20.4037 18.8606Z" fill="#483E52"/>
<path fill-rule="evenodd" clip-rule="evenodd" d="M24.0396 11.3653C23.9688 11.2893 23.8834 11.2284 23.7886 11.1861C23.6937 11.1438 23.5913 11.1211 23.4874 11.1193C23.3836 11.1174 23.2804 11.1365 23.1841 11.1754C23.0878 11.2143 23.0003 11.2722 22.9269 11.3457C22.8534 11.4191 22.7955 11.5066 22.7566 11.6029C22.7177 11.6992 22.6986 11.8024 22.7005 11.9062C22.7023 12.0101 22.725 12.1125 22.7673 12.2074C22.8096 12.3022 22.8705 12.3876 22.9465 12.4584L24.7174 14.2284H12.6837C12.58 14.2248 12.4767 14.2421 12.3799 14.2793C12.2831 14.3165 12.1947 14.3727 12.1201 14.4448C12.0455 14.5168 11.9862 14.6032 11.9457 14.6986C11.9052 14.7941 11.8843 14.8968 11.8843 15.0005C11.8843 15.1042 11.9052 15.2068 11.9457 15.3023C11.9862 15.3978 12.0455 15.4841 12.1201 15.5561C12.1947 15.6282 12.2831 15.6845 12.3799 15.7216C12.4767 15.7588 12.58 15.7761 12.6837 15.7725H24.7174L22.9465 17.5425C22.8705 17.6133 22.8096 17.6987 22.7673 17.7936C22.725 17.8884 22.7023 17.9909 22.7005 18.0947C22.6986 18.1986 22.7177 18.3017 22.7566 18.398C22.7955 18.4943 22.8534 18.5818 22.9269 18.6552C23.0003 18.7287 23.0878 18.7866 23.1841 18.8255C23.2804 18.8644 23.3836 18.8835 23.4874 18.8817C23.5913 18.8798 23.6937 18.8571 23.7886 18.8148C23.8834 18.7726 23.9688 18.7116 24.0396 18.6356L27.1278 15.5475C27.2724 15.4024 27.3536 15.2058 27.3536 15.0009C27.3536 14.796 27.2724 14.5995 27.1278 14.4544L24.0396 11.3653Z" fill="#483E52"/>
</g>
</svg>
