<svg width="26" height="28" viewBox="0 0 26 28" fill="none" xmlns="http://www.w3.org/2000/svg">
<path fill-rule="evenodd" clip-rule="evenodd" d="M18.8125 13.9553H17.4925C18.6946 13.0193 19.5743 11.7313 20.0088 10.2711C20.4433 8.81089 20.4109 7.25143 19.9161 5.81054C19.4213 4.36965 18.4888 3.11928 17.2489 2.23408C16.009 1.34888 14.5235 0.873047 13 0.873047C11.4766 0.873047 9.99112 1.34888 8.75119 2.23408C7.51127 3.11928 6.57878 4.36965 6.08397 5.81054C5.58916 7.25143 5.55675 8.81089 5.99125 10.2711C6.42575 11.7313 7.30547 13.0193 8.50754 13.9553H7.18754C5.44109 13.9553 3.76617 14.6491 2.53124 15.884C1.29631 17.1189 0.602539 18.7939 0.602539 20.5403C0.602539 22.2868 1.29631 23.9617 2.53124 25.1966C3.76617 26.4315 5.44109 27.1253 7.18754 27.1253H18.8125C20.559 27.1253 22.2339 26.4315 23.4688 25.1966C24.7038 23.9617 25.3975 22.2868 25.3975 20.5403C25.3975 18.7939 24.7038 17.1189 23.4688 15.884C22.2339 14.6491 20.559 13.9553 18.8125 13.9553ZM7.23254 8.1878C7.23254 7.0471 7.5708 5.93201 8.20454 4.98355C8.83828 4.03509 9.73904 3.29586 10.7929 2.85933C11.8468 2.4228 13.0064 2.30858 14.1252 2.53113C15.244 2.75367 16.2717 3.30297 17.0783 4.10957C17.8849 4.91617 18.4342 5.94384 18.6567 7.06262C18.8793 8.18141 18.765 9.34106 18.3285 10.3949C17.892 11.4488 17.1528 12.3496 16.2043 12.9833C15.2558 13.617 14.1407 13.9553 13 13.9553C11.4706 13.9546 10.0041 13.3467 8.92262 12.2652C7.84117 11.1838 7.23328 9.71721 7.23254 8.1878ZM18.8125 25.5812H7.18754C6.51983 25.5903 5.85697 25.4667 5.23745 25.2175C4.61793 24.9683 4.0541 24.5984 3.5787 24.1295C3.10331 23.6605 2.72583 23.1018 2.46818 22.4857C2.21053 21.8697 2.07786 21.2085 2.07786 20.5408C2.07786 19.873 2.21053 19.2119 2.46818 18.5958C2.72583 17.9798 3.10331 17.421 3.5787 16.9521C4.0541 16.4831 4.61793 16.1133 5.23745 15.8641C5.85697 15.6148 6.51983 15.4912 7.18754 15.5003H18.8125C20.1495 15.5003 21.4317 16.0314 22.377 16.9768C23.3224 17.9221 23.8535 19.2043 23.8535 20.5412C23.8535 21.8782 23.3224 23.1604 22.377 24.1057C21.4317 25.0511 20.1495 25.5822 18.8125 25.5822V25.5812Z" fill="#483E52"/>
</svg>
