<svg width="24" height="30" viewBox="0 0 24 30" fill="none" xmlns="http://www.w3.org/2000/svg">
<path d="M17.0859 18.7969H6.91406C6.5625 18.7969 6.28125 19.0781 6.28125 19.4297C6.28125 19.7813 6.5625 20.0625 6.91406 20.0625H17.0859C17.4375 20.0625 17.7188 19.7813 17.7188 19.4297C17.7188 19.0781 17.4375 18.7969 17.0859 18.7969Z" fill="#483E52"/>
<path d="M17.0859 23.1797H6.91406C6.5625 23.1797 6.28125 23.4609 6.28125 23.8125C6.28125 24.1641 6.5625 24.4453 6.91406 24.4453H17.0859C17.4375 24.4453 17.7188 24.1641 17.7188 23.8125C17.7188 23.4609 17.4375 23.1797 17.0859 23.1797Z" fill="#483E52"/>
<path d="M20.5781 3.07031H17.0859L16.7344 1.07812C16.6406 0.703125 16.3359 0.46875 15.9609 0.46875H12H8.03906C7.6875 0.46875 7.35938 0.726562 7.28906 1.07812L6.9375 3.07031H3.42188C1.75781 3.07031 0.375 4.42969 0.375 6.11719V26.5078C0.375 28.1719 1.73438 29.5547 3.42188 29.5547H12H20.5781C22.2422 29.5547 23.625 28.1953 23.625 26.5078V6.11719C23.625 4.42969 22.2656 3.07031 20.5781 3.07031ZM11.9766 1.05469H12H12.0234C12.4219 1.05469 12.7266 1.35938 12.7266 1.75781C12.7266 2.13281 12.4219 2.46094 12.0234 2.46094H12H11.9766C11.5781 2.46094 11.2734 2.15625 11.2734 1.75781C11.2734 1.38281 11.5781 1.05469 11.9766 1.05469ZM21.7031 26.5078C21.7031 27.1172 21.2109 27.6328 20.5781 27.6328H12H3.42188C2.8125 27.6328 2.29688 27.1406 2.29688 26.5078V6.11719C2.29688 5.50781 2.78906 4.99219 3.42188 4.99219H6.58594H12H17.4141H20.5781C21.1875 4.99219 21.7031 5.50781 21.7031 6.11719V26.5078Z" fill="#483E52"/>
<path d="M12.0234 16.0078C12.7969 16.0078 13.5469 15.7969 14.1562 15.4219L13.2422 14.1797C12.8906 14.3672 12.4687 14.4844 12.0234 14.4844C10.5937 14.4844 9.42187 13.3125 9.42187 11.8828C9.42187 11.5313 9.49218 11.2031 9.60937 10.8984L8.25 10.1953C8.01562 10.7109 7.875 11.2969 7.875 11.9063C7.89844 14.1797 9.75 16.0078 12.0234 16.0078Z" fill="#483E52"/>
<path d="M12.0234 9.30469C12.5391 9.30469 13.0078 9.44531 13.4062 9.70312L14.5547 8.64844C13.8516 8.10937 12.9844 7.78125 12.0469 7.78125C10.6406 7.78125 9.39844 8.48437 8.64844 9.58594L10.0078 10.3125C10.4531 9.67969 11.1797 9.30469 12.0234 9.30469Z" fill="#483E52"/>
<path d="M14.6016 11.9062C14.6016 12.6328 14.2969 13.3125 13.8047 13.7812L14.7188 15C15.5859 14.25 16.125 13.125 16.125 11.9062C16.125 10.8281 15.7266 9.86719 15.0469 9.11719L13.9219 10.1484C14.3672 10.6172 14.6016 11.2266 14.6016 11.9062Z" fill="#483E52"/>
</svg>
