<svg width="28" height="28" viewBox="0 0 28 28" fill="none" xmlns="http://www.w3.org/2000/svg">
<path d="M15.7999 0.5C16.9478 0.5 17.8999 1.45216 17.8999 2.6V3.65C18.1247 3.7336 18.3468 3.82379 18.5655 3.92188L19.3062 3.18125C20.1177 2.36969 21.4665 2.36969 22.278 3.18125L24.8187 5.72188C25.6302 6.53344 25.6302 7.87282 24.8187 8.68439L24.078 9.425C24.1779 9.6473 24.2651 9.87161 24.3499 10.1H25.3999C26.5478 10.1 27.4999 11.0522 27.4999 12.2V15.8C27.4999 16.9478 26.5478 17.9 25.3999 17.9H24.3499C24.2664 18.1247 24.1761 18.3468 24.078 18.5656L24.8187 19.3063C25.6302 20.1178 25.6302 21.4572 24.8187 22.2688L22.278 24.8094C21.4665 25.6209 20.1177 25.6209 19.3062 24.8094L18.5655 24.0688C18.3468 24.1668 18.1247 24.257 17.8999 24.3406V25.4C17.8999 26.5478 16.9478 27.5 15.7999 27.5H12.1999C11.0521 27.5 10.0999 26.5478 10.0999 25.4V24.3406C9.878 24.2574 9.65933 24.1659 9.44369 24.0688L8.70305 24.8094C7.89338 25.619 6.55274 25.6152 5.74055 24.8094H5.73125L3.18125 22.2781C3.18122 22.2751 3.18122 22.2718 3.18125 22.2688C2.36969 21.4573 2.36969 20.1179 3.18125 19.3063L3.93125 18.5563C3.83261 18.3411 3.73547 18.1237 3.65 17.9001H2.6C1.45217 17.9001 0.5 16.9479 0.5 15.8001V12.2001C0.5 11.0523 1.45217 10.1001 2.6 10.1001H3.65C3.73673 9.87272 3.8309 9.65312 3.93125 9.43445L3.18125 8.68445C2.36969 7.87289 2.36969 6.53351 3.18125 5.72195L5.73125 3.18132C6.54281 2.36976 7.89158 2.36976 8.70311 3.18132L9.44375 3.92195C9.65936 3.82478 9.87806 3.73332 10.1 3.65007V2.60007C10.1 1.45224 11.0522 0.500073 12.2 0.500073H15.8L15.7999 0.5ZM15.7999 2.3H12.1999C12.0182 2.3 11.8999 2.41824 11.8999 2.6V4.25C11.8966 4.62985 11.6258 4.99232 11.2624 5.10313C10.6958 5.27754 10.1588 5.49851 9.64994 5.76875C9.31214 5.9481 8.86064 5.88018 8.59055 5.60938L7.42805 4.44688C7.29947 4.31827 7.1348 4.31827 7.00619 4.44688C7.00622 4.45 7.00622 4.45314 7.00619 4.45623L4.45619 6.98748C4.32761 7.11609 4.32761 7.29013 4.45619 7.41873L5.62805 8.59061C5.89889 8.8607 5.96681 9.31217 5.78744 9.65C5.51324 10.1674 5.28356 10.705 5.11244 11.2625C5.00072 11.6288 4.63295 11.9007 4.24994 11.9H2.59994C2.4182 11.9 2.29994 12.0182 2.29994 12.2V15.8C2.29994 15.9818 2.4182 16.1 2.59994 16.1H4.24994C4.63064 16.097 4.99742 16.3652 5.11244 16.7281C5.28356 17.2857 5.51324 17.8326 5.78744 18.35C5.96243 18.6858 5.89478 19.1312 5.62805 19.4L4.45619 20.5719C4.32761 20.7005 4.32761 20.8745 4.45619 21.0031L7.00619 23.5437C7.1348 23.6723 7.29944 23.6723 7.42805 23.5437L8.59055 22.3812C8.86067 22.1104 9.31214 22.0425 9.64994 22.2219C10.1588 22.4921 10.6958 22.7131 11.2624 22.8875C11.6288 22.9992 11.9006 23.367 11.8999 23.75V25.4C11.8999 25.5817 12.0182 25.7 12.1999 25.7H15.7999C15.9817 25.7 16.0999 25.5817 16.0999 25.4V23.75C16.0999 23.367 16.3711 22.9992 16.7374 22.8875C17.3091 22.712 17.8505 22.4921 18.3593 22.2219C18.6971 22.0425 19.1486 22.1104 19.4187 22.3812L20.5812 23.5437C20.7098 23.6723 20.8744 23.6723 21.003 23.5437L23.5437 21.0031C23.6723 20.8745 23.6723 20.7005 23.5437 20.5719L22.3812 19.4094C22.1145 19.1406 22.0468 18.6951 22.2218 18.3594C22.492 17.8506 22.712 17.2998 22.8874 16.7281C23.0025 16.3652 23.3693 16.0981 23.7499 16.1H25.3999C25.5817 16.1 25.6999 15.9818 25.6999 15.8V12.2C25.6999 12.0182 25.5817 11.9 25.3999 11.9H23.7499C23.367 11.9 22.9992 11.6288 22.8874 11.2625C22.712 10.6908 22.492 10.1494 22.2218 9.64061C22.0425 9.30281 22.1104 8.85134 22.3812 8.58125L23.5437 7.41873C23.6723 7.29013 23.6723 7.11609 23.5437 6.98748L21.003 4.44686C20.8745 4.31825 20.7098 4.31825 20.5812 4.44686L19.4187 5.60936C19.1486 5.88016 18.6971 5.94808 18.3593 5.76873C17.8506 5.49855 17.3091 5.27856 16.7374 5.10311C16.3741 4.9923 16.1032 4.62984 16.0999 4.24998V2.59998C16.0999 2.41822 15.9817 2.29998 15.7999 2.29998V2.3ZM13.9999 7.7C17.4687 7.7 20.2999 10.5312 20.2999 14C20.2999 17.4687 17.4687 20.3 13.9999 20.3C10.5312 20.3 7.69994 17.4687 7.69994 14C7.69994 10.5312 10.5312 7.7 13.9999 7.7ZM13.9999 9.5C11.504 9.5 9.49994 11.504 9.49994 14C9.49994 16.4959 11.504 18.5 13.9999 18.5C16.4959 18.5 18.4999 16.4959 18.4999 14C18.4999 11.504 16.4959 9.5 13.9999 9.5Z" fill="#483E52"/>
</svg>
